<svg xmlns="http://www.w3.org/2000/svg" xmlns:xlink="http://www.w3.org/1999/xlink" width="157" height="47" viewBox="0 0 157 47">
  <defs>
    <polygon id="positive@svg-a" points=".096 .412 21.722 .412 21.722 31.515 .096 31.515"/>
    <polygon id="positive@svg-c" points="0 47.589 156.35 47.589 156.35 2.001 0 2.001"/>
  </defs>
  <g fill="none" fill-rule="evenodd" transform="translate(0 -1.468)">
    <path fill="#3B444A" d="M45.7144253,3.0232 L45.7144253,21.0532 C45.7144253,25.6272 44.8439696,28.8572 43.1030582,30.7392 C41.3621468,32.6232 38.3612608,33.5632 34.1023873,33.5632 C29.6129823,33.5632 26.4550962,32.6232 24.6267418,30.7392 C22.7983873,28.8572 21.8861975,25.6272 21.8861975,21.0532 L21.8861975,3.0232 L28.4484,3.0232 L28.4484,21.0532 C28.4484,23.8032 28.8279823,25.6872 29.5911215,26.6992 C30.3542608,27.7132 31.7553367,28.2192 33.8003114,28.2192 C35.8134886,28.2192 37.2026405,27.7132 37.9657797,26.6992 C38.728919,25.6872 39.1104886,23.8032 39.1104886,21.0532 L39.1104886,3.0232 L45.7144253,3.0232 Z"/>
    <g transform="translate(47.696 1.589)">
      <mask id="positive@svg-b" fill="#fff">
        <use xlink:href="#positive@svg-a"/>
      </mask>
      <path fill="#3B444A" d="M12.2682582,19.613 L6.26847342,17.485 C4.05258734,16.675 2.46867595,15.573 1.51872658,14.183 C0.570764557,12.793 0.0957898734,10.969 0.0957898734,8.709 C0.0957898734,5.407 0.892713924,3.199 2.49053671,2.085 C4.08835949,0.969 6.9004481,0.411 10.9307772,0.411 C14.7285873,0.411 17.9937899,0.803 20.7283722,1.585 L20.297119,6.103 C17.7930684,6.015 14.6868532,5.973 10.9744987,5.973 C9.24749873,5.973 8.09484051,6.125 7.52049873,6.429 C6.94416962,6.733 6.65600506,7.493 6.65600506,8.709 C6.65600506,9.695 6.87262532,10.403 7.30387848,10.837 C7.73513165,11.271 8.5559038,11.693 9.76420759,12.097 L15.4181949,14.053 C17.7215241,14.863 19.3471696,15.971 20.297119,17.375 C21.2470684,18.781 21.722043,20.613 21.722043,22.871 C21.722043,26.231 20.9151823,28.511 19.3054354,29.713 C17.6917139,30.915 14.8160304,31.515 10.6704354,31.515 C7.30387848,31.515 3.8936,31.139 0.441587342,30.387 L0.829118987,25.607 C6.95808101,25.753 10.2391823,25.825 10.6704354,25.825 C12.4252582,25.825 13.5997772,25.637 14.1900177,25.261 C14.7782709,24.885 15.0743848,24.103 15.0743848,22.915 C15.0743848,21.901 14.8716759,21.185 14.4702329,20.765 C14.0668025,20.345 13.3334734,19.961 12.2682582,19.613" mask="url(#positive@svg-b)"/>
    </g>
    <mask id="positive@svg-d" fill="#fff">
      <use xlink:href="#positive@svg-c"/>
    </mask>
    <polygon fill="#3B444A" points="71.858 32.541 78.419 32.541 78.419 2.565 71.858 2.565" mask="url(#positive@svg-d)"/>
    <path fill="#3B444A" d="M98.2615304 9.4724C97.4407582 8.0524 95.9085177 7.3444 93.6648089 7.3444 91.4191127 7.3444 89.8868722 8.0524 89.0661 9.4724 88.2473152 10.8904 87.8359354 13.5844 87.8359354 17.5524 87.8359354 21.5204 88.2473152 24.2144 89.0661 25.6324 89.8868722 27.0524 91.4191127 27.7624 93.6648089 27.7624 95.9085177 27.7624 97.4407582 27.0524 98.2615304 25.6324 99.0823025 24.2144 99.4916949 21.5204 99.4916949 17.5524 99.4916949 13.5844 99.0823025 10.8904 98.2615304 9.4724M83.7141886 5.3244C85.5703658 3.1084 88.8872392 2.0004 93.6648089 2.0004 98.4403911 2.0004 101.765214 3.1084 103.635303 5.3244 105.505391 7.5384 106.441429 11.6164 106.441429 17.5524 106.441429 23.4904 105.505391 27.5664 103.635303 29.7824 101.765214 31.9984 98.4403911 33.1044 93.6648089 33.1044 88.8872392 33.1044 85.5703658 31.9984 83.7141886 29.7824 81.8580114 27.5664 80.9299228 23.4904 80.9299228 17.5524 80.9299228 11.6164 81.8580114 7.5384 83.7141886 5.3244M134.029906 2.5652L127.813501 2.5652 127.813501 19.8112C127.813501 20.9132 127.898957 22.5912 128.071856 24.8512L127.640603 24.8512C126.921185 23.0852 126.201767 21.4772 125.482349 20.0292L117.926476 4.5212C117.582666 3.8252 117.222957 3.3252 116.849337 3.0212 116.475716 2.7172 115.95702 2.5652 115.295235 2.5652L111.280805 2.5652C109.696894 2.5652 108.905932 3.3612 108.905932 4.9552L108.905932 32.5412 115.164071 32.5412 115.164071 14.7292C115.164071 12.9912 115.064704 11.3992 114.863982 9.9512L115.338957 9.9512C115.567501 10.9352 116.171653 12.4852 117.151413 14.5992L124.963653 30.5852C125.309451 31.2812 125.669159 31.7792 126.04278 32.0852 126.4164 32.3892 127.396159 32.8152 128.089742 31.6672 129.784944 28.1872 131.655033 24.3472 133.475438 20.6072 133.984197 19.6112 134.099463 19.1252 134.099463 17.9392 134.099463 16.7552 134.055742 7.7772 134.029906 2.5652M154.883282 24.4344C151.471016 19.0204 142.95327 17.3884 140.548586 14.1324 139.324384 12.4744 139.972257 10.9404 140.061687 10.7504 139.83513 11.2084 136.581852 17.9024 136.581852 17.9024 135.894232 19.2884 136.186371 20.5284 136.868029 21.4804 138.916978 24.3464 147.440687 25.4004 149.110054 28.7924 149.984485 30.5704 149.678434 35.1764 141.880105 35.9684 141.134852 36.0444 140.645966 36.7684 140.467105 37.4624 139.966295 39.4024 140.2167 41.7804 141.921839 41.7804 154.432156 41.7804 158.985156 30.9424 154.883282 24.4344" mask="url(#positive@svg-d)"/>
    <path fill="#F47B27" d="M154.482634,9.1884 C153.791039,9.1864 144.001394,9.1824 143.168697,9.1884 C141.809356,9.1984 140.773951,9.2764 140.062482,10.7504 C139.579558,11.7484 136.8569,17.3364 136.580659,17.9044 C137.07352,16.8924 138.170533,16.4064 139.337103,16.4064 C141.060128,16.4084 147.262622,16.4164 151.062419,16.4064 C154.832406,16.3964 158.206913,9.1944 154.482634,9.1884" mask="url(#positive@svg-d)"/>
    <path fill="#C6C5C7" d="M140.060694,10.7528 L140.060694,10.7508 L140.060694,10.7528 Z" mask="url(#positive@svg-d)"/>
    <path fill="#3B444A" d="M136.996213,17.3012 C137.56658,16.6992 138.429086,16.4052 139.331339,16.4052 L139.335314,16.4052 C140.007035,16.4072 141.362403,16.4092 142.988048,16.4092 C141.362403,16.4092 140.007035,16.4072 139.335314,16.4052 L139.331339,16.4052 C138.429086,16.4052 137.56658,16.6992 136.996213,17.3012 M139.227997,12.4652 C139.613542,11.6752 139.925554,11.0332 140.060694,10.7512 L140.060694,10.7532 C139.923567,11.0352 139.611554,11.6752 139.227997,12.4652" mask="url(#positive@svg-d)"/>
    <path fill="#C66E36" d="M136.580858,17.9032 L136.580858,17.9032 C136.580858,17.9012 136.580858,17.9012 136.582846,17.8992 L136.588808,17.8872 C136.590795,17.8812 136.592782,17.8772 136.59477,17.8732 C136.596757,17.8712 136.596757,17.8692 136.596757,17.8672 C136.598744,17.8672 136.598744,17.8652 136.598744,17.8632 C136.600732,17.8632 136.600732,17.8612 136.600732,17.8592 C136.604706,17.8512 136.610668,17.8412 136.614643,17.8332 C136.618618,17.8272 136.620605,17.8212 136.622592,17.8152 C136.62458,17.8152 136.62458,17.8132 136.62458,17.8132 C136.630542,17.8012 136.636504,17.7872 136.644453,17.7732 C136.648428,17.7632 136.65439,17.7512 136.658365,17.7412 C136.674263,17.7112 136.690162,17.6792 136.706061,17.6452 C136.708048,17.6412 136.710035,17.6392 136.710035,17.6352 C136.712023,17.6352 136.712023,17.6332 136.71401,17.6312 C137.141289,16.7512 138.367478,14.2372 139.227997,12.4652 C139.611554,11.6752 139.923567,11.0352 140.060694,10.7532 C139.969276,10.9512 139.327365,12.4792 140.54958,14.1332 C141.165656,14.9692 142.187149,15.6972 143.419301,16.4092 L143.013884,16.4092 L142.997985,16.4092 L142.988048,16.4092 C141.362403,16.4092 140.007035,16.4072 139.335314,16.4052 L139.331339,16.4052 C138.429086,16.4052 137.56658,16.6992 136.996213,17.3012 C136.996213,17.3032 136.996213,17.3032 136.994225,17.3032 C136.994225,17.3052 136.994225,17.3052 136.992238,17.3052 C136.992238,17.3072 136.992238,17.3072 136.990251,17.3072 C136.990251,17.3092 136.990251,17.3092 136.988263,17.3112 L136.980314,17.3192 L136.976339,17.3232 L136.976339,17.3252 L136.974352,17.3252 L136.970377,17.3292 C136.966403,17.3332 136.962428,17.3392 136.958453,17.3432 C136.956466,17.3452 136.952491,17.3492 136.952491,17.3512 C136.950504,17.3512 136.950504,17.3512 136.950504,17.3532 C136.946529,17.3572 136.942554,17.3612 136.940567,17.3652 C136.93858,17.3652 136.936592,17.3672 136.934605,17.3692 C136.928643,17.3752 136.924668,17.3812 136.918706,17.3892 L136.916719,17.3892 C136.912744,17.3932 136.910757,17.3992 136.906782,17.4032 C136.904795,17.4032 136.904795,17.4052 136.902808,17.4052 C136.90082,17.4072 136.90082,17.4092 136.898833,17.4112 C136.896846,17.4132 136.896846,17.4152 136.894858,17.4152 C136.888896,17.4232 136.880947,17.4332 136.874985,17.4412 L136.872997,17.4432 L136.87101,17.4472 C136.869023,17.4472 136.869023,17.4472 136.869023,17.4492 C136.867035,17.4512 136.865048,17.4532 136.861073,17.4572 C136.859086,17.4592 136.859086,17.4612 136.857099,17.4632 C136.855111,17.4652 136.853124,17.4692 136.851137,17.4712 C136.849149,17.4712 136.849149,17.4732 136.849149,17.4732 C136.845175,17.4792 136.839213,17.4852 136.835238,17.4912 L136.833251,17.4932 C136.803441,17.5312 136.775618,17.5712 136.747795,17.6132 C136.745808,17.6152 136.74382,17.6192 136.741833,17.6232 L136.739846,17.6232 C136.735871,17.6312 136.729909,17.6392 136.725934,17.6472 C136.723947,17.6492 136.721959,17.6512 136.721959,17.6532 L136.719972,17.6552 C136.717985,17.6572 136.715997,17.6612 136.71401,17.6652 L136.712023,17.6672 L136.704073,17.6812 C136.702086,17.6832 136.702086,17.6852 136.700099,17.6852 L136.700099,17.6872 L136.698111,17.6892 C136.698111,17.6912 136.696124,17.6912 136.696124,17.6932 C136.692149,17.6992 136.688175,17.7072 136.6842,17.7132 C136.682213,17.7132 136.682213,17.7152 136.682213,17.7152 C136.680225,17.7172 136.680225,17.7212 136.678238,17.7232 C136.676251,17.7232 136.676251,17.7252 136.676251,17.7252 C136.662339,17.7492 136.650415,17.7712 136.636504,17.7952 C136.626567,17.8132 136.61663,17.8312 136.606694,17.8492 C136.606694,17.8512 136.606694,17.8512 136.604706,17.8532 C136.604706,17.8532 136.604706,17.8552 136.602719,17.8572 C136.600732,17.8612 136.598744,17.8652 136.596757,17.8712 C136.592782,17.8772 136.588808,17.8852 136.584833,17.8932 C136.582846,17.8972 136.580858,17.8992 136.580858,17.9032" mask="url(#positive@svg-d)"/>
    <path fill="#3B444A" d="M19.599562 7.7782L8.93747342 7.7782C8.10080253 7.7782 7.5046 7.9522 7.14489114 8.3002 6.78518228 8.6462 6.60632152 9.2122 6.60632152 9.9942L6.60632152 15.1202 18.0017392 15.1202 18.0017392 19.9422 6.60632152 19.9422 6.60632152 32.5402.000397468354 32.5402.000397468354 8.6462C.000397468354 6.7362.598587342 5.2222 1.79297975 4.1082 2.98737215 2.9922 4.57724557 2.4342 6.5626 2.4342 12.8942709 2.4342 17.3538658 2.5942 19.9453595 2.9122L19.599562 7.7782zM22.8929848 46.6316C23.3739215 46.6436 24.0078835 46.6436 24.7114025 46.6436 25.9892633 46.6436 26.4105797 46.3836 26.4105797 45.2276 26.4105797 43.9636 25.9654152 43.6336 24.6398582 43.6096L22.8929848 43.6096 22.8929848 46.6316zM24.6279342 42.8196C25.8004658 42.8076 26.2118456 42.5356 26.2118456 41.4396 26.2118456 40.3296 25.766681 40.0816 24.4649722 40.0816L22.8929848 40.0816 22.8929848 42.8196 24.6279342 42.8196zM25.836238 43.2336C27.0445418 43.3396 27.4539342 44.1056 27.4539342 45.4036 27.4539342 47.0796 26.7285544 47.5276 24.8743646 47.5276 23.4911747 47.5276 22.7995797 47.5176 21.8854025 47.4336L21.8854025 39.2916C22.6942506 39.2076 23.3143013 39.1956 24.510681 39.1956 26.4940481 39.1956 27.2075038 39.6456 27.2075038 41.3216 27.2075038 42.4896 26.8100354 43.0916 25.836238 43.1856L25.836238 43.2336zM33.9048456 47.4344L33.1079215 47.4344 33.0363772 46.6084C32.1818203 47.2564 31.3948329 47.5884 30.5740608 47.5884 29.5426304 47.5884 29.0139975 47.0444 29.0139975 46.0064L29.0139975 41.6864 30.011643 41.6864 30.011643 45.7224C29.999719 46.4544 30.2580734 46.7144 30.9138962 46.7144 31.5240101 46.7144 32.0745038 46.4304 32.9072 45.8884L32.9072 41.6864 33.9048456 41.6864 33.9048456 47.4344zM36.6956696 44.7322C35.7695684 44.5082 35.4058848 44.0722 35.4058848 43.1282 35.4058848 41.7942 36.0736316 41.5222 37.6336949 41.5462 38.3849101 41.5582 39.3348595 41.6162 40.0383785 41.7222L39.9549101 42.4542C39.2394671 42.4302 38.5021633 42.3962 37.7867203 42.3962 36.7314418 42.3842 36.3796823 42.4082 36.3796823 43.1282 36.3796823 43.7282 36.6598975 43.8242 37.2123785 43.9542L38.8777709 44.3302C39.7800241 44.5542 40.2013405 44.9322 40.2013405 45.9122 40.2013405 47.3282 39.4163405 47.5642 37.7628722 47.5642 37.3514924 47.5642 36.4969354 47.5522 35.523138 47.4002L35.5926949 46.6682C36.1571 46.7022 36.8248468 46.7262 37.564138 46.7142 38.8419987 46.7142 39.2394671 46.5962 39.2394671 45.9122 39.2394671 45.3462 38.8877076 45.2402 38.3372139 45.1102L36.6956696 44.7322zM41.7381519 47.435L42.7238734 47.435 42.7238734 41.687 41.7381519 41.687 41.7381519 47.435zM42.465519 39.245C42.6761772 39.245 42.7695823 39.363 42.7695823 39.551L42.7695823 40.223C42.7695823 40.437 42.6761772 40.531 42.465519 40.531L41.9984937 40.531C41.7977722 40.531 41.6904557 40.437 41.6904557 40.223L41.6904557 39.551C41.6904557 39.363 41.7977722 39.245 41.9984937 39.245L42.465519 39.245zM45.5144987 42.5956C46.3829671 41.9356 47.2275873 41.5456 48.0702203 41.5456 49.0797899 41.5456 49.6183595 42.0876 49.6183595 43.1276L49.6183595 47.4336 48.6227013 47.4336 48.6227013 43.4096C48.6227013 42.6436 48.3881949 42.3956 47.8019291 42.3956 47.1202709 42.3956 46.5121443 42.7376 45.5959797 43.3036L45.5959797 47.4336 44.6003215 47.4336 44.6003215 41.6876 45.4449418 41.6876 45.5144987 42.5956zM54.5914835 44.2722C55.1081924 44.2722 55.2135215 43.8482 55.2135215 43.4222 55.2015975 42.6902 54.8259899 42.3962 53.8064835 42.3962 52.6101038 42.3962 52.2106481 42.8202 52.1748759 44.2722L54.5914835 44.2722zM52.1868 45.0502C52.2921291 46.4202 52.820762 46.7262 53.9932937 46.7262 54.6034076 46.7262 55.3884076 46.6682 55.9746734 46.5862L56.0800025 47.2582C55.5414329 47.4822 54.5219266 47.5762 53.8641165 47.5762 51.8946608 47.5762 51.1315215 46.7502 51.1315215 44.5442 51.1315215 42.2902 51.9185089 41.5462 53.7587873 41.5462 55.4818127 41.5462 56.2091797 42.1842 56.2091797 43.4222 56.2211038 44.4482 55.7997873 45.0502 54.849838 45.0502L52.1868 45.0502zM58.6718937 44.7322C57.7457924 44.5082 57.3821089 44.0722 57.3821089 43.1282 57.3821089 41.7942 58.0498557 41.5222 59.609919 41.5462 60.3611342 41.5582 61.3110835 41.6162 62.0146025 41.7222L61.9311342 42.4542C61.2156911 42.4302 60.4783873 42.3962 59.7629443 42.3962 58.7076658 42.3842 58.3559063 42.4082 58.3559063 43.1282 58.3559063 43.7282 58.6361215 43.8242 59.1886025 43.9542L60.8539949 44.3302C61.7562481 44.5542 62.1775646 44.9322 62.1775646 45.9122 62.1775646 47.3282 61.3925646 47.5642 59.7390962 47.5642 59.3277165 47.5642 58.4731595 47.5522 57.499362 47.4002L57.568919 46.6682C58.1333241 46.7022 58.8010709 46.7262 59.540362 46.7142 60.8182228 46.7142 61.2156911 46.5962 61.2156911 45.9122 61.2156911 45.3462 60.8639316 45.2402 60.313438 45.1102L58.6718937 44.7322zM64.6299443 44.7322C63.703843 44.5082 63.3401595 44.0722 63.3401595 43.1282 63.3401595 41.7942 64.0079063 41.5222 65.5679696 41.5462 66.3191848 41.5582 67.2691342 41.6162 67.9726532 41.7222L67.8891848 42.4542C67.1737418 42.4302 66.436438 42.3962 65.7209949 42.3962 64.6657165 42.3842 64.313957 42.4082 64.313957 43.1282 64.313957 43.7282 64.5941722 43.8242 65.1466532 43.9542L66.8120456 44.3302C67.7142987 44.5542 68.1356152 44.9322 68.1356152 45.9122 68.1356152 47.3282 67.3506152 47.5642 65.6971468 47.5642 65.2857671 47.5642 64.4312101 47.5522 63.4574127 47.4002L63.5269696 46.6682C64.0913747 46.7022 64.7591215 46.7262 65.4984127 46.7142 66.7762734 46.7142 67.1737418 46.5962 67.1737418 45.9122 67.1737418 45.3462 66.8219823 45.2402 66.2714886 45.1102L64.6299443 44.7322zM73.5652316 43.5634C72.3927 43.2674 71.9693962 42.5374 71.9693962 41.2974 71.9693962 39.3974 72.7921557 39.1494 74.596662 39.1494 75.3598013 39.1614 76.1924975 39.2094 77.0013456 39.3854L76.9317886 40.1414C76.2501304 40.1054 75.3955734 40.0814 74.6443582 40.0814 73.4718266 40.0814 73.014738 40.1174 73.014738 41.3214 73.014738 42.2174 73.3188013 42.4774 74.0342443 42.6554L75.6757886 43.0674C76.9198646 43.3754 77.3054089 44.0954 77.3054089 45.3574 77.3054089 47.2334 76.4846367 47.5754 74.596662 47.5754 74.0700165 47.5754 73.1896241 47.5514 72.0886367 47.3514L72.1581937 46.5854C73.5294595 46.6314 73.9646873 46.6554 74.6324342 46.6434 75.8745228 46.6434 76.2620544 46.4554 76.2620544 45.3334 76.2620544 44.3894 75.9460671 44.1654 75.2425481 43.9874L73.5652316 43.5634zM79.5932367 44.5672C79.5932367 46.2432 79.9907051 46.7392 81.234781 46.7392 82.4768696 46.7392 82.8882494 46.2432 82.8882494 44.5672 82.8882494 42.8912 82.4768696 42.3952 81.234781 42.3952 79.9907051 42.3952 79.5932367 42.8912 79.5932367 44.5672M83.9196797 44.5672C83.9196797 46.7752 83.2042367 47.5892 81.234781 47.5892 79.2772494 47.5892 78.5478949 46.7752 78.5478949 44.5672 78.5478949 42.3712 79.2772494 41.5452 81.234781 41.5452 83.2042367 41.5452 83.9196797 42.3712 83.9196797 44.5672M86.4879215 45.8534C86.4759975 46.3614 86.7582 46.6194 87.2609975 46.6194L87.8134785 46.6194 87.9307316 47.3874C87.7081494 47.4934 87.1675924 47.5414 86.8873772 47.5414 86.042757 47.5414 85.4922633 47.0214 85.4922633 46.0774L85.4922633 39.1734 86.4879215 39.1734 86.4879215 45.8534zM93.8182316 47.4344L93.0213076 47.4344 92.9497633 46.6084C92.0952063 47.2564 91.308219 47.5884 90.4874468 47.5884 89.4560165 47.5884 88.9293709 47.0444 88.9293709 46.0064L88.9293709 41.6864 89.9250291 41.6864 89.9250291 45.7224C89.9131051 46.4544 90.1714595 46.7144 90.8272823 46.7144 91.4373962 46.7144 91.9898772 46.4304 92.8225734 45.8884L92.8225734 41.6864 93.8182316 41.6864 93.8182316 47.4344zM97.0776709 45.8534C97.0776709 46.4074 97.2903165 46.6194 97.8527342 46.6194L98.7212025 46.6194 98.8364684 47.3874C98.4628481 47.4934 97.8288861 47.5414 97.5466835 47.5414 96.5848101 47.5414 96.0820127 46.9854 96.0820127 45.9834L96.0820127 42.4774 95.0505823 42.4774 95.0505823 41.7454 96.0820127 41.6994 96.0820127 39.9874 97.0776709 39.9874 97.0776709 41.6874 98.8960886 41.6874 98.8960886 42.4774 97.0776709 42.4774 97.0776709 45.8534zM100.162025 47.435L101.147747 47.435 101.147747 41.687 100.162025 41.687 100.162025 47.435zM100.887405 39.245C101.100051 39.245 101.193456 39.363 101.193456 39.551L101.193456 40.223C101.193456 40.437 101.100051 40.531 100.887405 40.531L100.422367 40.531C100.221646 40.531 100.114329 40.437 100.114329 40.223L100.114329 39.551C100.114329 39.363 100.221646 39.245 100.422367 39.245L100.887405 39.245zM103.796675 44.5672C103.796675 46.2432 104.19613 46.7392 105.440206 46.7392 106.682295 46.7392 107.093675 46.2432 107.093675 44.5672 107.093675 42.8912 106.682295 42.3952 105.440206 42.3952 104.19613 42.3952 103.796675 42.8912 103.796675 44.5672M108.125105 44.5672C108.125105 46.7752 107.409662 47.5892 105.440206 47.5892 103.480687 47.5892 102.75332 46.7752 102.75332 44.5672 102.75332 42.3712 103.480687 41.5452 105.440206 41.5452 107.409662 41.5452 108.125105 42.3712 108.125105 44.5672M110.598948 42.5956C111.467416 41.9356 112.312037 41.5456 113.15467 41.5456 114.164239 41.5456 114.704796 42.0876 114.704796 43.1276L114.704796 47.4336 113.707151 47.4336 113.707151 43.4096C113.707151 42.6436 113.472644 42.3956 112.886378 42.3956 112.20472 42.3956 111.596594 42.7376 110.680429 43.3036L110.680429 47.4336 109.684771 47.4336 109.684771 41.6876 110.527404 41.6876 110.598948 42.5956zM117.459649 44.7322C116.533548 44.5082 116.169865 44.0722 116.169865 43.1282 116.169865 41.7942 116.837611 41.5222 118.397675 41.5462 119.14889 41.5582 120.096852 41.6162 120.802358 41.7222L120.71889 42.4542C120.005434 42.4302 119.264156 42.3962 118.5507 42.3962 117.495422 42.3842 117.143662 42.4082 117.143662 43.1282 117.143662 43.7282 117.423877 43.8242 117.976358 43.9542L119.639763 44.3302C120.544004 44.5542 120.96532 44.9322 120.96532 45.9122 120.96532 47.3282 120.18032 47.5642 118.526852 47.5642 118.115472 47.5642 117.258928 47.5522 116.287118 47.4002L116.356675 46.6682C116.92108 46.7022 117.588827 46.7262 118.328118 46.7142 119.605978 46.7142 120.005434 46.5962 120.005434 45.9122 120.005434 45.3462 119.651687 45.2402 119.101194 45.1102L117.459649 44.7322z" mask="url(#positive@svg-d)"/>
  </g>
</svg>
