<?xml version="1.0" encoding="UTF-8"?> <!-- Generator: Adobe Illustrator 19.1.0, SVG Export Plug-In . SVG Version: 6.00 Build 0) --> <svg xmlns="http://www.w3.org/2000/svg" xmlns:xlink="http://www.w3.org/1999/xlink" version="1.1" id="Layer_1" x="0px" y="0px" viewBox="0 0 910.4 93.5" style="enable-background:new 0 0 910.4 93.5;" xml:space="preserve"> <style type="text/css"> .st0{fill:#CC3233;} </style> <g> <path d="M0,2.2h17.7c10.2,0,17,0.4,20.6,1.3c5.1,1.3,9.2,3.8,12.5,7.7c3.2,3.9,4.8,8.8,4.8,14.7c0,5.9-1.6,10.8-4.7,14.7 c-3.1,3.9-7.5,6.4-13,7.8c-4,1-11.6,1.5-22.6,1.5H8.9v41.4H0V2.2z M8.9,11v30.2L24,41.4c6.1,0,10.6-0.6,13.4-1.7 c2.8-1.1,5-2.9,6.7-5.4c1.6-2.5,2.4-5.2,2.4-8.3c0-3-0.8-5.7-2.4-8.2c-1.6-2.5-3.7-4.2-6.4-5.3c-2.6-1-7-1.6-13-1.6H8.9z"></path> <path d="M73.9,2.2h17.7c9.9,0,16.6,0.4,20.1,1.2c5.3,1.2,9.6,3.8,12.9,7.8c3.3,4,5,8.9,5,14.7c0,4.9-1.1,9.1-3.4,12.8 c-2.3,3.7-5.5,6.5-9.8,8.3c-4.2,1.9-10.1,2.8-17.6,2.9l32,41.4h-11L87.9,50h-5v41.4h-8.9V2.2z M82.8,11v30.3l15.3,0.1 c5.9,0,10.3-0.6,13.2-1.7c2.9-1.1,5.1-2.9,6.7-5.4c1.6-2.5,2.4-5.3,2.4-8.3c0-3-0.8-5.7-2.4-8.1c-1.6-2.4-3.7-4.2-6.4-5.2 c-2.6-1-7-1.6-13.1-1.6H82.8z"></path> <path d="M148.8,2.2h51V11h-42.1v27.9h41.8v8.7h-41.8v35h41.8v8.7h-50.7V2.2z"></path> <path d="M211.1,91.3l12.8-89.1h1.4l36.2,73.1l35.9-73.1h1.4l12.8,89.1h-8.7l-8.8-63.7l-31.5,63.7h-2.3l-31.9-64.2l-8.7,64.2H211.1z "></path> <path d="M327.9,2.2h8.9v89.1h-8.9V2.2z"></path> <path d="M357.2,2.2h51V11h-42.1v27.9h41.8v8.7h-41.8v35h41.8v8.7h-50.7V2.2z"></path> <path d="M424.1,2.2h17.7c9.9,0,16.6,0.4,20.1,1.2c5.3,1.2,9.6,3.8,12.9,7.8c3.3,4,5,8.9,5,14.7c0,4.9-1.1,9.1-3.4,12.8 c-2.3,3.7-5.5,6.5-9.8,8.3c-4.2,1.9-10.1,2.8-17.6,2.9l32,41.4h-11l-32-41.4h-5v41.4h-8.9V2.2z M433,11v30.3l15.3,0.1 c5.9,0,10.3-0.6,13.2-1.7c2.8-1.1,5.1-2.9,6.7-5.4s2.4-5.3,2.4-8.3c0-3-0.8-5.7-2.4-8.1c-1.6-2.4-3.7-4.2-6.4-5.2 c-2.6-1-7-1.6-13.1-1.6H433z"></path> </g> <g> <path class="st0" d="M495.3,2.2h44.2v16.5h-27.4v16.2h27.4v16.3h-27.4v40.1h-16.8V2.2z"></path> <path class="st0" d="M553.4,2.2h16.8v89.1h-16.8V2.2z"></path> <path class="st0" d="M580.5,2.2h49.2V19h-16.2v72.4h-17.2V19h-15.8V2.2z"></path> <path class="st0" d="M641.4,2.2h16.3l38.1,58.6V2.2h17v89.1h-16.3l-38.1-58.4v58.4h-17V2.2z"></path> <path class="st0" d="M733.2,2.2h48.6v16.6H750v16.1h31.8v16.3H750v23.4h31.8v16.7h-48.6V2.2z"></path> <path class="st0" d="M844.3,14.3l-12.6,11.1c-4.4-6.1-8.9-9.2-13.5-9.2c-2.2,0-4,0.6-5.5,1.8c-1.4,1.2-2.1,2.5-2.1,4 c0,1.5,0.5,2.9,1.5,4.2c1.4,1.8,5.5,5.6,12.4,11.4c6.5,5.4,10.4,8.8,11.8,10.2c3.4,3.5,5.9,6.8,7.3,10s2.2,6.6,2.2,10.4 c0,7.3-2.5,13.3-7.6,18.1s-11.6,7.1-19.8,7.1c-6.3,0-11.9-1.6-16.6-4.7c-4.7-3.1-8.7-8-12.1-14.7l14.3-8.6 c4.3,7.9,9.2,11.8,14.8,11.8c2.9,0,5.4-0.8,7.3-2.5c2-1.7,3-3.7,3-5.9c0-2-0.7-4-2.2-6.1s-4.8-5.1-9.9-9.3 c-9.7-7.9-16-14-18.8-18.3c-2.8-4.3-4.2-8.6-4.2-12.9c0-6.2,2.4-11.5,7.1-15.9c4.7-4.4,10.5-6.6,17.4-6.6c4.4,0,8.7,1,12.7,3.1 C835.3,5.1,839.6,8.9,844.3,14.3z"></path> <path class="st0" d="M908.8,14.3l-12.6,11.1c-4.4-6.1-8.9-9.2-13.5-9.2c-2.2,0-4,0.6-5.5,1.8c-1.4,1.2-2.1,2.5-2.1,4 c0,1.5,0.5,2.9,1.5,4.2c1.4,1.8,5.5,5.6,12.4,11.4c6.5,5.4,10.4,8.8,11.8,10.2c3.4,3.5,5.9,6.8,7.3,10s2.2,6.6,2.2,10.4 c0,7.3-2.5,13.3-7.6,18.1s-11.6,7.1-19.8,7.1c-6.3,0-11.9-1.6-16.6-4.7c-4.7-3.1-8.7-8-12.1-14.7l14.3-8.6 c4.3,7.9,9.2,11.8,14.8,11.8c2.9,0,5.4-0.8,7.3-2.5c2-1.7,3-3.7,3-5.9c0-2-0.7-4-2.2-6.1s-4.8-5.1-9.9-9.3 c-9.7-7.9-16-14-18.8-18.3c-2.8-4.3-4.2-8.6-4.2-12.9c0-6.2,2.4-11.5,7.1-15.9C870.3,2.2,876.1,0,883,0c4.4,0,8.7,1,12.7,3.1 C899.8,5.1,904.1,8.9,908.8,14.3z"></path> </g> </svg> 