<svg width="229" height="75" viewBox="0 0 229 75" fill="none" xmlns="http://www.w3.org/2000/svg"> <path d="M66.0022 41.3168C44.8726 54.1847 22.8099 65.444 0 75C12.5579 70.515 43.2227 63.5038 63.8849 63.5038C84.5471 63.5038 85.7883 73.023 85.7883 73.023C85.7883 73.023 110.922 11.5145 115.577 0C113.04 3.9175 90.5888 26.4706 66.0022 41.3168Z" fill="#0F0F0F"></path> <path d="M156.225 49.2249C156.113 48.0707 155.823 46.9407 155.368 45.8748C154.91 44.8017 154.202 43.854 153.305 43.1106C152.329 42.2358 151.159 41.6081 149.892 41.28C148.6 40.9511 147.28 40.7489 145.949 40.6759H144.58C144.13 40.6759 143.692 40.6759 143.266 40.6759H131.858C130.538 40.7069 129.234 40.3847 128.08 39.7423C127.541 39.4287 127.102 38.9679 126.814 38.4136C126.527 37.8594 126.402 37.2345 126.455 36.612C126.356 35.855 126.475 35.0853 126.798 34.3942C127.122 33.703 127.636 33.1195 128.28 32.7128C129.746 31.9942 131.359 31.6305 132.99 31.651H154.272V24.9693H131.73C128.112 24.7911 124.515 25.6076 121.326 27.3308C118.759 28.9295 117.438 31.9012 117.365 36.2458C117.365 40.383 118.582 43.2449 121.016 44.8314C124.065 46.5537 127.543 47.3607 131.037 47.1563H141.185C142.56 47.1673 143.926 47.3832 145.237 47.797C145.834 48.0406 146.343 48.4594 146.698 48.9984C147.053 49.5375 147.238 50.1716 147.227 50.8175C147.501 52.9044 146.935 54.2407 145.548 54.8448C143.98 55.4618 142.301 55.7424 140.619 55.6686H119.081V62.3503H142.025C145.633 62.5327 149.222 61.7292 152.411 60.0255C154.954 58.4878 156.262 55.5404 156.335 51.1836C156.335 50.8358 156.335 50.5063 156.335 50.1585C156.335 49.8106 156.262 49.5727 156.225 49.2249Z" fill="#0F0F0F"></path> <path d="M164.404 29.2348C161.319 32.0173 159.549 36.3742 159.129 42.287C159.129 42.7996 159.129 43.3305 159.129 43.8431C159.092 44.3855 159.092 44.9298 159.129 45.4723C159.167 48.0508 159.629 50.6054 160.498 53.0327C161.453 55.5353 163.123 57.7001 165.298 59.2567C167.088 60.6124 169.17 61.5279 171.376 61.9294C173.588 62.3168 175.83 62.5067 178.075 62.497H192.678V55.9799H178.532H178.02C176.796 55.9735 175.574 55.8572 174.37 55.6322C173.149 55.3781 172.041 54.7362 171.212 53.8016C170.37 52.9209 169.745 51.8552 169.387 50.6895C169.003 49.5319 168.752 48.3343 168.639 47.1198C168.639 46.5218 168.639 45.9116 168.639 45.2892V43.5867C168.678 40.6088 169.357 37.6743 170.628 34.9829C171.851 32.5116 174.534 31.3217 178.678 31.2301H192.824V24.8047H178.495C172.216 24.9389 167.519 26.4156 164.404 29.2348Z" fill="#0F0F0F"></path> <path d="M206.713 35.1293C207.917 32.658 210.6 31.4682 214.744 31.3766H228.89V24.9512H214.58C208.374 24.9512 203.737 26.3424 200.634 29.125C197.531 31.9075 195.779 36.2643 195.359 42.1772C195.359 42.6898 195.359 43.2207 195.359 43.7332C195.359 44.2458 195.359 44.7949 195.359 45.3624C195.434 47.941 195.934 50.4894 196.838 52.9045C197.787 55.4059 199.45 57.5709 201.62 59.1286C203.415 60.4756 205.495 61.3901 207.698 61.8013C209.91 62.1879 212.152 62.3778 214.397 62.3688H228.999V55.8518H214.853H214.342C213.117 55.8478 211.895 55.7314 210.692 55.504C209.465 55.2512 208.351 54.6094 207.516 53.6734C206.68 52.788 206.056 51.7239 205.69 50.5614C205.316 49.4014 205.065 48.2048 204.942 46.9917C204.942 46.3937 204.942 45.7835 204.942 45.1611V43.4586C204.96 40.5901 205.562 37.7556 206.713 35.1293Z" fill="#0F0F0F"></path> </svg>